<?xml version="1.0" standalone="no"?>
<!DOCTYPE svg PUBLIC "-//W3C//DTD SVG 20010904//EN"
 "http://www.w3.org/TR/2001/REC-SVG-20010904/DTD/svg10.dtd">
<svg version="1.0" xmlns="http://www.w3.org/2000/svg"
 width="866.000000pt" height="500.000000pt" viewBox="0 0 866.000000 500.000000"
 preserveAspectRatio="xMidYMid meet">

<g transform="translate(0.000000,500.000000) scale(0.100000,-0.100000)"
fill="#000000" stroke="none">
<path d="M228 4800 c-48 -14 -94 -49 -124 -92 l-29 -41 0 -302 0 -301 28 -42
c15 -23 46 -54 69 -69 l42 -28 1000 -6 c973 -5 1003 -6 1087 -26 216 -53 378
-139 529 -281 290 -271 440 -653 440 -1114 0 -343 -81 -632 -245 -878 -206
-310 -498 -491 -857 -530 -61 -6 -442 -10 -1013 -10 -1002 0 -954 3 -1019 -58
-62 -58 -66 -79 -66 -385 0 -255 2 -281 19 -316 24 -46 91 -108 128 -118 16
-5 471 -8 1013 -8 1034 0 1044 0 1250 46 221 48 474 145 645 247 179 107 405
308 558 497 249 308 394 639 469 1071 20 116 23 161 22 449 0 301 -2 328 -26
465 -69 377 -204 699 -411 977 -104 140 -362 397 -487 485 -278 196 -664 335
-1025 368 -132 12 -1957 12 -1997 0z"/>
<path d="M4999 4783 c-35 -19 -64 -43 -84 -71 l-30 -44 0 -2142 0 -2142 27
-42 c15 -22 49 -54 75 -69 l48 -28 290 0 c264 0 293 2 325 19 49 26 79 55 103
101 22 40 22 46 25 698 l3 657 665 0 c400 0 703 4 762 11 388 42 696 179 947
420 260 251 392 547 427 957 27 315 -31 647 -155 893 -69 137 -135 227 -257
350 -265 266 -594 411 -1020 449 -68 6 -517 10 -1106 10 l-990 0 -55 -27z
m2211 -881 c250 -66 402 -212 456 -438 23 -95 23 -314 0 -409 -49 -203 -171
-342 -362 -411 -137 -50 -199 -54 -886 -54 l-638 0 0 671 0 670 673 -4 c658
-3 674 -4 757 -25z"/>
</g>
</svg>
