<?xml version="1.0" standalone="no"?>
<!DOCTYPE svg PUBLIC "-//W3C//DTD SVG 20010904//EN"
 "http://www.w3.org/TR/2001/REC-SVG-20010904/DTD/svg10.dtd">
<svg version="1.0" xmlns="http://www.w3.org/2000/svg"
 width="1000.000000pt" height="428.000000pt" viewBox="0 0 1000.000000 428.000000"
 preserveAspectRatio="xMidYMid meet">

<g transform="translate(0.000000,428.000000) scale(0.100000,-0.100000)"
fill="#ffffff" stroke="none">
<path d="M464 3766 c-17 -8 -44 -31 -60 -52 l-29 -37 -3 -199 c-3 -186 -2
-202 18 -243 12 -24 36 -53 53 -64 31 -19 56 -20 782 -23 735 -4 752 -4 828
-26 101 -28 168 -64 218 -120 126 -135 154 -400 62 -583 -50 -100 -126 -160
-263 -205 -51 -17 -114 -19 -826 -24 l-771 -5 -35 -27 c-71 -54 -68 -16 -68
-809 0 -694 1 -714 20 -753 39 -79 46 -81 295 -84 206 -2 222 -1 253 18 18 11
41 34 52 52 19 32 20 52 20 504 l0 472 518 5 c547 5 587 8 757 58 282 83 522
287 641 545 108 233 132 572 59 841 -105 392 -410 662 -845 749 -75 15 -179
18 -865 20 -649 3 -785 1 -811 -10z"/>
<path d="M4452 3763 c-19 -9 -41 -27 -50 -41 -33 -51 -925 -2159 -929 -2198
-7 -54 19 -108 66 -140 35 -24 38 -24 275 -24 273 0 287 4 325 83 10 23 146
346 301 717 155 371 285 681 289 687 6 11 701 -1633 718 -1696 l5 -21 -1048 0
c-1022 0 -1050 -1 -1081 -20 -43 -26 -51 -39 -137 -242 -86 -201 -93 -239 -51
-301 50 -73 -82 -67 1597 -67 1455 0 1515 1 1548 19 46 24 83 93 78 146 -6 60
-1275 3040 -1310 3075 -15 15 -41 30 -59 34 -17 3 -138 6 -268 6 -198 0 -241
-3 -269 -17z"/>
<path d="M6783 3759 c-78 -39 -83 -56 -83 -295 0 -190 2 -212 20 -241 43 -72
-6 -67 790 -74 814 -6 781 -3 970 -95 83 -41 108 -60 200 -153 120 -122 174
-207 226 -359 45 -132 64 -251 64 -402 0 -206 -36 -371 -115 -527 -118 -234
-303 -390 -540 -455 -78 -22 -97 -22 -800 -28 -680 -5 -722 -6 -747 -24 -15
-10 -37 -33 -48 -51 -18 -30 -20 -49 -20 -242 0 -201 1 -211 23 -243 12 -18
38 -41 57 -52 34 -18 66 -18 780 -15 725 3 748 4 842 25 299 68 541 197 739
396 249 249 388 516 455 878 22 114 30 428 15 559 -48 411 -206 739 -489 1011
-169 162 -338 261 -575 337 -202 65 -190 64 -992 68 -728 4 -730 4 -772 -18z"/>
</g>
</svg>
