<?xml version="1.0" standalone="no"?>
<!DOCTYPE svg PUBLIC "-//W3C//DTD SVG 20010904//EN"
 "http://www.w3.org/TR/2001/REC-SVG-20010904/DTD/svg10.dtd">
<svg version="1.0" xmlns="http://www.w3.org/2000/svg"
 width="433.000000pt" height="288.000000pt" viewBox="0 0 433.000000 288.000000"
 preserveAspectRatio="xMidYMid meet">

<g transform="translate(0.000000,288.000000) scale(0.100000,-0.100000)"
fill="#000000" stroke="none">
<path d="M935 2865 c-239 -26 -439 -102 -610 -230 -196 -147 -290 -347 -222
-475 26 -50 67 -78 115 -79 l32 -1 0 115 c0 96 4 125 24 181 73 199 285 366
521 410 128 23 292 15 400 -20 99 -33 144 -60 218 -133 151 -149 213 -382 187
-703 -44 -547 -358 -1084 -795 -1358 -99 -62 -229 -109 -362 -132 -83 -15
-220 -8 -239 12 -10 11 -2 53 42 228 53 210 132 500 160 590 8 25 18 59 23 75
123 402 301 912 380 1090 32 72 54 135 48 141 -13 14 -81 21 -111 13 -75 -21
-158 -154 -237 -379 -69 -197 -169 -504 -227 -695 -125 -412 -174 -584 -221
-780 -12 -49 -26 -106 -31 -125 -29 -111 -23 -133 45 -180 71 -49 147 -63 310
-57 195 7 268 25 487 125 401 184 773 631 894 1077 84 311 85 586 2 830 -95
278 -300 436 -598 460 -47 3 -94 8 -105 9 -11 2 -69 -2 -130 -9z"/>
<path d="M3802 1670 c-89 -19 -221 -95 -307 -177 -106 -101 -197 -250 -250
-407 -30 -90 -68 -151 -157 -252 -77 -86 -139 -136 -221 -177 -83 -42 -145
-44 -184 -4 -27 26 -28 31 -27 125 1 86 6 110 43 219 23 67 67 179 96 249 74
171 74 177 -20 208 -39 13 -51 14 -61 4 -6 -7 -51 -92 -100 -188 -225 -449
-349 -610 -471 -610 -33 0 -48 6 -68 28 -14 15 -29 38 -33 52 -13 45 -8 272 7
320 33 106 41 129 70 203 17 42 49 114 72 158 44 88 44 83 -13 114 -57 31 -88
15 -140 -70 -38 -65 -104 -227 -128 -320 -5 -16 -15 -55 -23 -85 -40 -146 -40
-270 1 -370 20 -49 72 -110 108 -125 51 -21 140 -19 193 5 59 27 156 128 230
241 33 52 62 89 62 84 1 -6 2 -57 3 -115 1 -116 12 -148 66 -193 36 -31 97
-42 191 -34 135 11 297 123 430 297 l34 44 6 -81 c14 -185 91 -291 247 -339
97 -29 244 -5 375 62 186 95 356 282 459 503 23 50 26 66 16 72 -20 13 -22 12
-41 -34 -42 -102 -112 -203 -207 -297 -152 -150 -273 -209 -431 -210 -77 0
-89 3 -131 29 -136 86 -140 333 -10 596 82 166 213 325 311 379 55 30 142 39
164 17 7 -7 12 -41 12 -84 0 -80 -19 -136 -68 -199 -15 -21 -26 -42 -23 -47 4
-5 22 -15 41 -21 30 -10 41 -9 80 10 64 31 90 88 90 200 0 149 -56 218 -183
225 -37 2 -86 0 -110 -5z"/>
<path d="M4125 529 c-120 -35 -338 -86 -570 -133 -230 -47 -251 -51 -460 -71
-33 -4 -73 -8 -90 -10 -16 -2 -55 -6 -85 -9 -30 -3 -82 -8 -115 -12 -103 -10
-146 -14 -335 -29 -41 -3 -95 -8 -120 -10 -25 -2 -79 -6 -120 -9 -41 -3 -100
-8 -130 -11 -30 -3 -89 -8 -130 -10 -41 -3 -102 -8 -135 -10 -33 -2 -89 -7
-125 -10 -36 -3 -101 -8 -145 -10 -44 -3 -111 -7 -150 -11 -38 -3 -99 -7 -135
-10 -65 -5 -91 -6 -315 -20 -311 -20 -695 -4 -695 28 0 5 -5 6 -10 3 -10 -6
-37 19 -87 80 -46 56 -135 147 -139 142 -3 -3 -6 -31 -8 -63 -3 -51 3 -93 19
-142 3 -7 5 -16 7 -20 1 -4 12 -18 25 -32 13 -14 23 -28 23 -32 0 -5 7 -8 15
-8 8 0 15 -3 15 -8 0 -10 49 -31 113 -48 81 -22 171 -27 452 -27 263 0 357 4
815 28 169 9 403 25 575 40 28 3 79 7 115 10 76 7 141 13 190 20 19 2 55 6 80
9 63 8 129 16 168 21 17 3 47 7 65 10 17 2 52 7 77 10 25 3 52 7 60 10 8 2 35
7 60 10 24 3 60 10 80 15 19 5 54 11 76 14 23 2 61 10 83 16 23 6 54 13 69 15
121 18 640 155 793 209 150 52 254 95 234 95 -5 0 -55 -14 -110 -30z"/>
</g>
</svg>
